<?xml version="1.0" encoding="utf-8"?>
<!-- Generator: Adobe Illustrator 16.0.0, SVG Export Plug-In . SVG Version: 6.00 Build 0)  -->
<!DOCTYPE svg PUBLIC "-//W3C//DTD SVG 1.1//EN" "http://www.w3.org/Graphics/SVG/1.1/DTD/svg11.dtd">
<svg version="1.1" id="Capa_1" xmlns="http://www.w3.org/2000/svg" xmlns:xlink="http://www.w3.org/1999/xlink" x="0px" y="0px"
	 width="583.275px" height="595.278px" viewBox="-1355.96 147.744 583.275 595.278"
	 enable-background="new -1355.96 147.744 583.275 595.278" xml:space="preserve">
<path fill="#628981" d="M-780.178,478.255l-9.025-12.32c-9.758-13.418-10.002-31.592-0.365-45.253l8.782-12.44
	c13.417-19.029,7.196-45.498-13.418-56.598l-13.417-7.196c-14.639-7.807-22.688-24.151-19.883-40.618l2.562-15.003
	c3.903-22.932-13.295-44.156-36.593-45.131l-15.247-0.61c-16.589-0.731-30.982-11.954-35.617-27.933l-4.27-14.637
	c-6.466-22.444-31.104-34.031-52.572-24.761l-14.027,5.977c-15.247,6.586-33.056,2.683-44.155-9.758l-10.124-11.344
	c-15.49-17.321-42.69-17.199-58.061,0.488l-10.002,11.466c-10.979,12.563-28.665,16.711-44.034,10.368l-14.149-5.855
	c-21.59-8.904-45.984,3.171-52.206,25.615l-4.024,14.759c-4.392,16.101-18.54,27.566-35.129,28.42l-15.247,0.854
	c-23.298,1.342-40.131,22.81-35.861,45.741l2.807,15.003c3.049,16.346-4.759,32.813-19.272,40.862l-13.296,7.44
	c-20.37,11.345-26.225,37.936-12.441,56.72l9.026,12.319c9.758,13.416,10.002,31.592,0.366,45.252l-8.783,12.443
	c-13.417,19.027-7.196,45.496,13.418,56.596l13.417,7.197c14.638,7.807,22.688,24.152,19.883,40.619l-2.562,15.002
	c-3.903,22.932,13.295,44.156,36.593,45.131l15.247,0.611c16.589,0.73,30.981,11.953,35.617,27.932l4.27,14.639
	c6.465,22.443,31.104,34.031,52.572,24.76l14.026-5.977c15.247-6.586,33.057-2.684,44.155,9.758l10.124,11.344
	c15.613,17.322,42.813,17.199,58.062-0.484l10.003-11.467c10.978-12.564,28.664-16.713,44.033-10.367l14.148,5.854
	c21.59,8.904,45.985-3.17,52.206-25.615l4.025-14.758c4.391-16.102,18.54-27.568,35.129-28.422l15.247-0.854
	c23.298-1.344,40.131-22.811,35.86-45.74l-2.806-15.004c-3.049-16.348,4.758-32.814,19.272-40.861l13.296-7.441
	C-772.25,523.751-766.395,497.164-780.178,478.255z"/>
<g>
	<path fill="#FFFFFF" d="M-1234.865,465.406h-47.853v-15.039h47.853V465.406z"/>
	<path fill="#FFFFFF" d="M-1138.971,470.093h19.63v15.137h-19.63v32.715h-19.141V485.23h-63.867v-10.85l62.695-98.623h20.313
		V470.093z M-1201.471,470.093h43.359v-66.699l-0.586-0.098l-1.855,4.883L-1201.471,470.093z"/>
	<path fill="#FFFFFF" d="M-1009.19,463.746c0,18.164-4.021,32.08-12.061,41.748c-8.042,9.668-19.061,14.502-33.058,14.502
		c-13.999,0-25.064-4.85-33.203-14.551c-8.139-9.699-12.207-23.6-12.207-41.699v-33.691c0-18.098,4.054-32.014,12.158-41.747
		c8.105-9.731,19.124-14.601,33.058-14.601c13.996,0,25.049,4.869,33.153,14.601c8.105,9.733,12.158,23.649,12.158,41.747
		L-1009.19,463.746L-1009.19,463.746z M-1028.428,425.921c0-12.293-2.23-21.547-6.688-27.76c-4.46-6.211-10.922-9.318-19.385-9.318
		c-8.464,0-14.909,3.107-19.336,9.318c-4.429,6.213-6.642,15.467-6.642,27.76v41.664c0,12.295,2.246,21.58,6.738,27.857
		c4.492,6.275,10.97,9.416,19.434,9.416c8.462,0,14.894-3.123,19.287-9.367c4.396-6.244,6.592-15.547,6.592-27.906V425.921z"/>
	<path fill="#FFFFFF" d="M-983.901,403.102c0-8.267,2.669-15.233,8.008-20.897c5.337-5.664,12.466-8.496,21.388-8.496
		c8.919,0,16.048,2.816,21.387,8.446c5.337,5.632,8.008,12.614,8.008,20.947v7.521c0,8.269-2.653,15.201-7.959,20.799
		c-5.307,5.602-12.387,8.398-21.24,8.398c-8.983,0-16.162-2.799-21.532-8.398c-5.371-5.598-8.058-12.531-8.058-20.799
		L-983.901,403.102L-983.901,403.102z M-969.643,410.621c0,4.819,1.318,8.903,3.955,12.256c2.638,3.354,6.43,5.029,11.377,5.029
		c4.751,0,8.432-1.66,11.035-4.98s3.906-7.422,3.906-12.305v-7.52c0-4.816-1.318-8.936-3.955-12.354s-6.364-5.127-11.182-5.127
		c-4.884,0-8.628,1.709-11.23,5.127c-2.604,3.418-3.906,7.535-3.906,12.354V410.621z M-949.33,507.203l-10.646-6.543l69.435-111.132
		l10.645,6.543L-949.33,507.203z M-915.053,483.082c0-8.266,2.67-15.217,8.009-20.85c5.337-5.631,12.466-8.447,21.387-8.447
		c8.853,0,15.967,2.816,21.338,8.447c5.371,5.633,8.057,12.584,8.057,20.85v7.617c0,8.336-2.67,15.301-8.008,20.898
		c-5.339,5.6-12.401,8.398-21.19,8.398c-8.984,0-16.162-2.799-21.533-8.398s-8.057-12.563-8.057-20.898v-7.617H-915.053z
		 M-900.795,490.699c0,4.883,1.317,9.002,3.955,12.354c2.637,3.355,6.429,5.029,11.377,5.029c4.751,0,8.431-1.674,11.034-5.029
		c2.604-3.352,3.906-7.471,3.906-12.354v-7.617c0-4.816-1.335-8.918-4.004-12.305c-2.67-3.385-6.381-5.078-11.133-5.078
		c-4.819,0-8.545,1.693-11.182,5.078c-2.638,3.387-3.955,7.486-3.955,12.305L-900.795,490.699L-900.795,490.699z"/>
</g>
</svg>
