<?xml version="1.0" encoding="utf-8"?>
<!-- Generator: Adobe Illustrator 16.0.0, SVG Export Plug-In . SVG Version: 6.00 Build 0)  -->
<!DOCTYPE svg PUBLIC "-//W3C//DTD SVG 1.1//EN" "http://www.w3.org/Graphics/SVG/1.1/DTD/svg11.dtd">
<svg version="1.1" id="Capa_1" xmlns="http://www.w3.org/2000/svg" xmlns:xlink="http://www.w3.org/1999/xlink" x="0px" y="0px"
	 width="583.275px" height="595.279px" viewBox="-614.997 159.743 583.275 595.279"
	 enable-background="new -614.997 159.743 583.275 595.279" xml:space="preserve">
<path fill="#628981" d="M-39.216,490.255l-9.026-12.32c-9.758-13.418-10.002-31.592-0.364-45.254l8.781-12.441
	c13.417-19.027,7.196-45.496-13.418-56.597l-13.417-7.196c-14.638-7.807-22.688-24.152-19.883-40.619l2.563-15.002
	c3.902-22.933-13.295-44.157-36.594-45.132l-15.246-0.61c-16.59-0.731-30.982-11.954-35.617-27.933l-4.271-14.637
	c-6.465-22.444-31.104-34.031-52.571-24.761l-14.027,5.977c-15.247,6.586-33.056,2.683-44.155-9.758l-10.124-11.344
	c-15.491-17.321-42.69-17.199-58.061,0.488l-10.002,11.466c-10.979,12.563-28.665,16.711-44.034,10.368l-14.149-5.855
	c-21.59-8.904-45.984,3.171-52.206,25.615l-4.024,14.759c-4.392,16.101-18.54,27.566-35.129,28.42l-15.247,0.854
	c-23.298,1.342-40.131,22.81-35.861,45.741l2.806,15.004c3.05,16.344-4.758,32.811-19.271,40.861l-13.296,7.441
	c-20.37,11.344-26.226,37.935-12.441,56.719l9.026,12.32c9.758,13.416,10.002,31.592,0.366,45.252l-8.783,12.443
	c-13.417,19.025-7.196,45.496,13.418,56.596l13.417,7.197c14.638,7.807,22.688,24.15,19.883,40.619l-2.562,15.002
	c-3.903,22.932,13.295,44.154,36.593,45.131l15.247,0.609c16.589,0.73,30.981,11.953,35.617,27.934l4.27,14.639
	c6.465,22.443,31.104,34.031,52.572,24.76l14.026-5.977c15.247-6.586,33.057-2.684,44.155,9.758l10.124,11.344
	c15.613,17.322,42.813,17.199,58.062-0.486l10.003-11.467c10.978-12.563,28.664-16.711,44.032-10.367l14.149,5.854
	c21.59,8.904,45.985-3.17,52.206-25.615l4.025-14.758c4.391-16.102,18.54-27.566,35.129-28.422l15.247-0.854
	c23.298-1.342,40.131-22.809,35.86-45.74l-2.806-15.004c-3.049-16.346,4.758-32.813,19.271-40.861l13.297-7.439
	C-31.287,535.751-25.432,509.162-39.216,490.255z"/>
<g>
	<path fill="#FFFFFF" d="M-491.275,479.896h-47.853v-15.039h47.853V479.896L-491.275,479.896z"/>
	<path fill="#FFFFFF" d="M-417.841,388.197c4.883,0,9.717,0.555,14.502,1.66c4.785,1.107,8.74,2.507,11.865,4.199l-4.103,14.746
		c-3.189-1.627-6.527-2.945-10.01-3.955s-7.567-1.514-12.256-1.514c-10.156,0-18.344,4.068-24.561,12.207
		c-6.219,8.139-9.326,18.75-9.326,31.834v2.246c4.166-3.646,8.936-6.494,14.307-8.545S-426.274,438-420.088,438
		c12.695,0,22.818,4.395,30.371,13.184c7.552,8.789,11.328,19.924,11.328,33.398c0,14.715-4.021,26.709-12.062,35.986
		c-8.042,9.277-18.767,13.916-32.178,13.916c-13.933,0-25.456-5.045-34.57-15.137c-9.115-10.092-13.672-24.316-13.672-42.676
		v-27.148c0-18.229,5.078-33.007,15.234-44.335S-432.88,388.197-417.841,388.197z M-424.384,452.357
		c-6.577,0-12.175,1.334-16.797,3.998c-4.624,2.666-8.139,6.209-10.547,10.629v11.508c0,13.066,2.767,23.143,8.301,30.229
		c5.533,7.086,12.466,10.629,20.801,10.629c7.876,0,14.015-3.332,18.408-9.994c4.395-6.664,6.592-14.938,6.592-24.818
		c0-9.359-2.359-17.064-7.08-23.109C-409.427,455.38-415.986,452.357-424.384,452.357z"/>
	<path fill="#FFFFFF" d="M-265.599,478.236c0,18.164-4.021,32.08-12.062,41.748c-8.042,9.668-19.06,14.502-33.057,14.502
		c-13.999,0-25.065-4.85-33.203-14.551c-8.139-9.699-12.207-23.6-12.207-41.699v-33.691c0-18.098,4.053-32.014,12.158-41.748
		c8.105-9.731,19.124-14.6,33.057-14.6c13.997,0,25.05,4.868,33.154,14.6c8.105,9.733,12.158,23.65,12.158,41.748L-265.599,478.236
		L-265.599,478.236z M-284.837,440.414c0-12.295-2.23-21.547-6.688-27.761c-4.46-6.212-10.922-9.317-19.386-9.317
		s-14.908,3.105-19.336,9.317c-4.428,6.214-6.641,15.466-6.641,27.761v41.664c0,12.293,2.246,21.578,6.738,27.855
		c4.491,6.277,10.97,9.416,19.434,9.416c8.462,0,14.894-3.123,19.287-9.367c4.395-6.244,6.592-15.547,6.592-27.904V440.414z"/>
	<path fill="#FFFFFF" d="M-240.31,417.591c0-8.266,2.669-15.233,8.008-20.897c5.337-5.664,12.466-8.495,21.387-8.495
		c8.919,0,16.048,2.816,21.388,8.446c5.337,5.632,8.008,12.614,8.008,20.946v7.52c0,8.27-2.653,15.203-7.959,20.801
		c-5.308,5.602-12.388,8.398-21.24,8.398c-8.984,0-16.162-2.799-21.533-8.398c-5.371-5.598-8.057-12.531-8.057-20.801
		L-240.31,417.591L-240.31,417.591z M-226.052,425.111c0,4.818,1.318,8.902,3.955,12.256s6.429,5.029,11.377,5.029
		c4.751,0,8.431-1.66,11.035-4.98c2.603-3.32,3.906-7.422,3.906-12.305v-7.52c0-4.816-1.318-8.936-3.955-12.354
		c-2.638-3.418-6.364-5.127-11.183-5.127c-4.883,0-8.627,1.709-11.229,5.127c-2.604,3.418-3.906,7.536-3.906,12.354V425.111z
		 M-205.74,521.693l-10.645-6.543l69.434-111.132l10.646,6.543L-205.74,521.693z M-171.462,497.572
		c0-8.268,2.669-15.217,8.008-20.85c5.337-5.631,12.467-8.447,21.388-8.447c8.853,0,15.967,2.816,21.338,8.447
		s8.057,12.582,8.057,20.85v7.617c0,8.336-2.67,15.301-8.008,20.898c-5.339,5.6-12.402,8.398-21.191,8.398
		c-8.983,0-16.162-2.801-21.532-8.398c-5.371-5.6-8.058-12.563-8.058-20.898L-171.462,497.572L-171.462,497.572z M-157.204,505.189
		c0,4.883,1.318,9.002,3.955,12.354c2.638,3.355,6.43,5.029,11.377,5.029c4.751,0,8.432-1.674,11.035-5.029
		c2.604-3.352,3.906-7.471,3.906-12.354v-7.617c0-4.816-1.335-8.918-4.004-12.305c-2.67-3.385-6.381-5.078-11.133-5.078
		c-4.819,0-8.545,1.693-11.183,5.078c-2.637,3.387-3.955,7.486-3.955,12.305L-157.204,505.189L-157.204,505.189z"/>
</g>
</svg>
