<?xml version="1.0" encoding="utf-8"?>
<!-- Generator: Adobe Illustrator 16.0.0, SVG Export Plug-In . SVG Version: 6.00 Build 0)  -->
<!DOCTYPE svg PUBLIC "-//W3C//DTD SVG 1.1//EN" "http://www.w3.org/Graphics/SVG/1.1/DTD/svg11.dtd">
<svg version="1.1" id="Layer_1" xmlns="http://www.w3.org/2000/svg" xmlns:xlink="http://www.w3.org/1999/xlink" x="0px" y="0px"
	 width="511.998px" height="311.112px" viewBox="0 100.445 511.998 311.112" enable-background="new 0 100.445 511.998 311.112"
	 xml:space="preserve">
<g>
	<g>
		<path fill="#70948C" d="M511.646,126.634c-0.021-14.449-11.782-26.189-26.227-26.189c-0.013,0-0.024,0-0.034,0L26.19,101.076
			c-7.005,0.009-13.588,2.746-18.535,7.706C2.709,113.743-0.009,120.334,0,127.337l0.354,258.029
			c0.009,7.005,2.746,13.588,7.706,18.534c4.951,4.938,11.526,7.656,18.52,7.656c0.012,0,0.024,0,0.035,0l459.193-0.632
			c14.458-0.021,26.207-11.799,26.189-26.261L511.646,126.634z M456.611,126.71L256.02,266.154L55.04,127.262L456.611,126.71z
			 M340.846,292.471l118.971,92.266l-407.972,0.56l119.696-92.825c5.722-4.438,6.764-12.675,2.326-18.398
			c-4.439-5.723-12.676-6.764-18.399-2.326L26.561,371.715L26.241,139.24l222.344,153.656c2.244,1.552,4.849,2.326,7.455,2.326
			c2.616,0,5.235-0.783,7.484-2.347l221.912-154.264l0.336,233.066l-128.856-99.931c-5.719-4.437-13.959-3.396-18.396,2.326
			C334.08,279.795,335.121,288.033,340.846,292.471z"/>
	</g>
</g>
</svg>
