<?xml version="1.0" encoding="utf-8"?>
<!-- Generator: Adobe Illustrator 16.0.0, SVG Export Plug-In . SVG Version: 6.00 Build 0)  -->
<!DOCTYPE svg PUBLIC "-//W3C//DTD SVG 1.1//EN" "http://www.w3.org/Graphics/SVG/1.1/DTD/svg11.dtd">
<svg version="1.1" id="Layer_1" xmlns="http://www.w3.org/2000/svg" xmlns:xlink="http://www.w3.org/1999/xlink" x="0px" y="0px"
	 width="595.28px" height="502.442px" viewBox="0 169.723 595.28 502.442" enable-background="new 0 169.723 595.28 502.442"
	 xml:space="preserve">
<g>
	<g>
		<g>
			<path fill="#628981" d="M180.643,293.67c19.36,0,35.111-15.75,35.111-35.111c0-19.361-15.751-35.112-35.111-35.112
				s-35.111,15.75-35.111,35.112C145.531,277.919,161.282,293.67,180.643,293.67z M180.643,240.884
				c9.745,0,17.674,7.928,17.674,17.674c0,9.746-7.929,17.674-17.674,17.674s-17.674-7.928-17.674-17.674
				C162.969,248.813,170.898,240.884,180.643,240.884z"/>
			<path fill="#628981" d="M106.639,375.394c23.362,0,42.369-19.007,42.369-42.37S130,290.655,106.639,290.655
				c-23.362,0-42.37,19.007-42.37,42.369S83.277,375.394,106.639,375.394z M106.639,308.093c13.747,0,24.932,11.185,24.932,24.932
				c0,13.748-11.185,24.932-24.932,24.932s-24.933-11.185-24.933-24.932C81.706,319.277,92.892,308.093,106.639,308.093z"/>
			<path fill="#628981" d="M179.738,467.925c-23.361,0-42.37,19.01-42.37,42.371s19.009,42.369,42.37,42.369
				c23.36,0,42.369-19.008,42.369-42.369C222.106,486.933,203.098,467.925,179.738,467.925z M179.738,535.228
				c-13.748,0-24.933-11.184-24.933-24.932c0-13.746,11.185-24.932,24.933-24.932c13.747,0,24.932,11.186,24.932,24.932
				C204.669,524.044,193.485,535.228,179.738,535.228z"/>
			<path fill="#628981" d="M98.386,395.137c-23.6,0-42.8,19.2-42.8,42.8c0,23.6,19.201,42.799,42.8,42.799s42.8-19.201,42.8-42.799
				C141.187,414.337,121.986,395.137,98.386,395.137z M98.386,463.3c-13.984,0-25.362-11.379-25.362-25.363
				s11.378-25.361,25.362-25.361s25.362,11.377,25.362,25.361C123.749,451.921,112.371,463.3,98.386,463.3z"/>
			<path fill="#628981" d="M586.668,280.964c-17.229-17.229-41.131-4.812-51.368,4.16l-99.458,87.265
				c-6.038-38.619-25.522-47.344-41.864-47.344c-19.039,0-37.603,12.536-42.913,16.434l-35.728,26.807
				c-19.792,14.853-47.987,9.259-60.729-11.866c-11.065-18.353-6.459-41.909,10.712-54.794l35.801-26.864
				c51.601-39.592,36.437-92.309-57.564-103.515c-113.715-13.69-224.157,66.12-241.322,186.463
				c-17.75,124.46,72.38,237.011,195.958,248.694c-4.539,18.18-3.529,37.398,3.686,54.662c0.885,2.117,2.567,3.801,4.683,4.684
				c53.265,22.26,121.363-16.375,117.244-70.313c2.611-0.459-0.949,1.572,51.807-34.115c18.194,8.58,38.719-10.654,31.735-29.363
				l123.661-140.935c3.176-3.619,2.816-9.128-0.803-12.303c-3.62-3.175-9.128-2.817-12.304,0.803L396.312,518.103l-46.784-46.783
				c3.849-3.377,188.14-165.074,197.232-173.052c0.176-0.15,17.645-14.903,27.577-4.971c9.929,9.929-4.824,27.405-4.937,27.537
				l-32.834,37.42c-3.175,3.62-2.815,9.128,0.804,12.303c3.618,3.175,9.129,2.817,12.304-0.803l32.842-37.431
				C591.472,322.082,603.867,298.168,586.668,280.964z M292.945,632.152c-20.31,20.311-50.286,28.033-76.277,18.816
				c-13.469-38.102,12.335-89.922,50.976-89.922c10.639,0,20.482,3.982,27.723,11.223
				C311.206,588.111,310.12,614.976,292.945,632.152z M323.37,575.615c-13.423-13.424-18.972-18.973-31.353-31.354l26.096-38.578
				l43.833,43.836L323.37,575.615z M391.317,539.664c0,2.281-1.373,3.271-3.096,4.994c-1.729,1.729-4.744,1.729-6.474-0.004
				l-58.772-58.773c-1.786-1.785-1.786-4.689,0-6.475l1.751-1.752c1.729-1.732,4.746-1.73,6.476,0
				C394.894,541.345,391.317,536.933,391.317,539.664z M335.689,460.261c-18.479-6.902-37.955,13.525-29.394,31.77
				c-34.644,51.215-33.603,48.93-34.11,51.748c-30.521-2.33-55.217,18.135-68.071,45.639C88.21,580.91,2.958,476.128,19.497,360.174
				C34.4,255.687,125.761,183.799,225.77,187.396c45.771,1.583,83.818,18.131,86.996,36.993
				c2.822,16.748-19.687,34.562-22.186,36.481l-35.727,26.809c-28.142,21.119-31.759,61.566-7.938,87.396
				c20.007,21.691,54.057,25.795,78.887,7.159l35.652-26.751c8.172-5.997,21.594-13,32.523-13c15.217,0,23.919,14.771,25.893,43.919
				L335.689,460.261z"/>
		</g>
	</g>
</g>
</svg>
