<?xml version="1.0" encoding="utf-8"?>
<!-- Generator: Adobe Illustrator 16.0.0, SVG Export Plug-In . SVG Version: 6.00 Build 0)  -->
<!DOCTYPE svg PUBLIC "-//W3C//DTD SVG 1.1//EN" "http://www.w3.org/Graphics/SVG/1.1/DTD/svg11.dtd">
<svg version="1.1" id="Слой_1" xmlns="http://www.w3.org/2000/svg" xmlns:xlink="http://www.w3.org/1999/xlink" x="0px" y="0px"
	 width="494.367px" height="595.281px" viewBox="50.457 123.305 494.367 595.281"
	 enable-background="new 50.457 123.305 494.367 595.281" xml:space="preserve">
<g>
	<path fill="#628981" d="M544.1,653.203l-78.809-190.258c-2.008-4.846-7.564-7.15-12.411-5.143
		c-4.847,2.01-7.149,7.566-5.141,12.412l71.245,171.998l-64.986-18.828c-4.266-1.238-8.821,0.648-10.963,4.541l-32.638,59.266
		l-76.445-184.557c88.231-17.016,155.085-94.806,155.085-187.929c0.002-105.538-85.859-191.4-191.397-191.4
		s-191.4,85.862-191.4,191.4c0,42.748,14.09,82.264,37.865,114.158L51.18,653.203c-1.396,3.375-0.737,7.25,1.698,9.971
		c2.435,2.721,6.216,3.805,9.723,2.789l76.668-22.217l38.503,69.924c1.678,3.043,4.873,4.916,8.319,4.916
		c0.175,0,0.351-0.006,0.526-0.014c3.646-0.203,6.854-2.477,8.252-5.852l73.633-177.764c2.007-4.848-0.294-10.404-5.142-12.41
		c-4.847-2.008-10.403,0.293-12.411,5.141L184.88,687.191l-32.636-59.266c-2.143-3.893-6.701-5.779-10.964-4.541l-64.984,18.828
		l81.563-196.908c34.954,37.389,84.682,60.801,139.781,60.801c5.688,0,11.314-0.266,16.877-0.752l85.895,207.367
		c1.397,3.375,4.605,5.648,8.251,5.85c0.177,0.01,0.352,0.016,0.528,0.016c3.446,0,6.642-1.873,8.317-4.916l38.504-69.924
		l76.669,22.217c3.509,1.018,7.286-0.068,9.722-2.789S545.496,656.578,544.1,653.203L544.1,653.203z M125.239,314.705
		c0-95.063,77.339-172.402,172.401-172.402s172.4,77.339,172.4,172.402s-77.338,172.402-172.4,172.402
		S125.239,409.768,125.239,314.705z"/>
	<path fill="#628981" d="M407.398,279.042c-1.093-3.366-3.97-5.846-7.462-6.433l-63.919-10.727l-29.953-57.475
		c-1.637-3.14-4.883-5.109-8.424-5.109c-3.54,0-6.787,1.969-8.424,5.109l-29.954,57.475l-63.918,10.727
		c-3.491,0.585-6.368,3.065-7.462,6.433c-1.095,3.368-0.226,7.064,2.256,9.59l45.405,46.249l-9.55,64.105
		c-0.521,3.502,0.947,7.003,3.813,9.085c2.862,2.08,6.648,2.396,9.817,0.818l58.017-28.893l58.016,28.893
		c1.342,0.667,2.79,0.997,4.234,0.997c1.972,0,3.932-0.613,5.584-1.814c2.865-2.082,4.334-5.583,3.813-9.085l-9.549-64.105
		l45.406-46.25C407.623,286.105,408.492,282.409,407.398,279.042z M342.866,324.947c-2.088,2.126-3.057,5.108-2.617,8.054
		l7.562,50.756l-45.936-22.875c-1.335-0.664-2.784-0.997-4.235-0.997c-1.45,0-2.901,0.332-4.233,0.997l-45.936,22.875L255.032,333
		c0.439-2.946-0.53-5.929-2.617-8.054l-35.951-36.619l50.607-8.494c2.938-0.493,5.476-2.335,6.853-4.978l23.716-45.506
		l23.716,45.507c1.379,2.642,3.914,4.485,6.853,4.978l50.608,8.493L342.866,324.947L342.866,324.947z"/>
	<path fill="#628981" d="M441.535,324.287c-5.201-0.695-9.977,2.968-10.664,8.169c-8.812,66.503-66.089,116.655-133.231,116.655
		c-74.111,0-134.405-60.293-134.405-134.406c0-74.112,60.294-134.405,134.405-134.405c67.144,0,124.42,50.15,133.231,116.655
		c0.688,5.202,5.472,8.867,10.664,8.169c5.199-0.689,8.858-5.464,8.168-10.665c-10.057-75.912-75.43-133.158-152.063-133.158
		c-84.587,0-153.403,68.815-153.403,153.403c0,84.588,68.816,153.402,153.403,153.402c76.634,0,142.007-57.245,152.065-133.157
		C450.394,329.75,446.737,324.976,441.535,324.287z"/>
</g>
</svg>
