<?xml version="1.0" encoding="utf-8"?>
<!-- Generator: Adobe Illustrator 16.0.0, SVG Export Plug-In . SVG Version: 6.00 Build 0)  -->
<!DOCTYPE svg PUBLIC "-//W3C//DTD SVG 1.1//EN" "http://www.w3.org/Graphics/SVG/1.1/DTD/svg11.dtd">
<svg version="1.1" id="Capa_1" xmlns="http://www.w3.org/2000/svg" xmlns:xlink="http://www.w3.org/1999/xlink" x="0px" y="0px"
	 width="595.27px" height="571.084px" viewBox="0 135.398 595.27 571.084" enable-background="new 0 135.398 595.27 571.084"
	 xml:space="preserve">
<g>
	<path fill="#628981" d="M516.921,521.13l-56.066,80.553l-39.565-32.471c-4.277-3.518-10.58-2.877-14.097,1.381
		c-3.517,4.279-2.896,10.602,1.393,14.098l47.951,39.365c1.804,1.482,4.048,2.283,6.353,2.283c0.45,0,0.911-0.029,1.372-0.1
		c2.766-0.381,5.25-1.904,6.854-4.197l62.258-89.461c3.156-4.537,2.044-10.779-2.505-13.945
		C526.309,515.439,520.077,516.582,516.921,521.13z"/>
	<path fill="#628981" d="M501.853,451.378l63.37-63.201V246.499L453.862,135.398H313.545l0,0l-7.604,7.584L60.115,388.007
		l0.08,0.081L0,448.123l251.948,252.488l88.127-87.896c15.83,54.104,65.805,93.768,124.947,93.768
		c71.816,0,130.247-58.43,130.247-130.246C595.28,517.212,555.785,467.308,501.853,451.378z M445.575,155.436l99.609,99.378v125.038
		l-67.027,66.796c-0.941-0.1-1.913-0.068-2.865-0.148c-0.741-0.061-1.493-0.131-2.225-0.191c-0.57-0.039-1.182-0.109-1.743-0.15
		c-2.154-0.119-4.238-0.189-6.292-0.189c-71.816,0-130.247,58.43-130.247,130.246c0,1.994,0.061,4.018,0.181,6.123
		c0.04,0.721,0.13,1.502,0.18,2.244c0.051,0.65,0.101,1.322,0.161,2.004c0.06,0.76,0.04,1.553,0.12,2.314l-23.324,23.254
		L88.538,388.128l233.293-232.692H445.575z M28.344,448.162l46.007-45.887L297.986,626.39l-46.007,45.887L28.344,448.162z
		 M465.032,686.445c-55.596,0-101.583-41.42-109.037-94.99l-0.029-0.201c-0.221-1.613-0.331-3.006-0.491-4.488
		c-0.08-0.732-0.181-1.523-0.24-2.225c-0.211-2.756-0.421-5.5-0.421-8.305c0-60.766,49.443-110.211,110.209-110.211
		c2.815,0,5.581,0.211,8.346,0.422c0.441,0.039,0.942,0.109,1.393,0.15c1.804,0.18,3.567,0.34,5.571,0.621l0.25,0.029
		c53.411,7.605,94.649,53.512,94.649,108.977C575.242,637.011,525.798,686.445,465.032,686.445z"/>
	<path fill="#628981" d="M425.107,304.419c21.741,0,39.425-17.684,39.425-39.425s-17.684-39.435-39.425-39.435
		s-39.435,17.694-39.435,39.435S403.365,304.419,425.107,304.419z M425.107,245.607c10.69,0,19.387,8.697,19.387,19.397
		c0,10.68-8.696,19.387-19.387,19.387s-19.396-8.696-19.396-19.387C405.71,254.304,414.406,245.607,425.107,245.607z"/>
</g>
</svg>
