<?xml version="1.0" encoding="utf-8"?>
<!-- Generator: Adobe Illustrator 16.0.0, SVG Export Plug-In . SVG Version: 6.00 Build 0)  -->
<!DOCTYPE svg PUBLIC "-//W3C//DTD SVG 1.1//EN" "http://www.w3.org/Graphics/SVG/1.1/DTD/svg11.dtd">
<svg version="1.1" id="Capa_1" xmlns="http://www.w3.org/2000/svg" xmlns:xlink="http://www.w3.org/1999/xlink" x="0px" y="0px"
	 width="595.279px" height="595.281px" viewBox="0 123.305 595.279 595.281" enable-background="new 0 123.305 595.279 595.281"
	 xml:space="preserve">
<g>
	<path fill="#628981" d="M297.64,123.305C133.522,123.305,0,256.826,0,420.945c0,164.119,133.521,297.64,297.64,297.64
		c164.119,0,297.64-133.521,297.64-297.64C595.28,256.826,461.759,123.305,297.64,123.305z M297.64,698.742
		c-153.176,0-277.797-124.621-277.797-277.796c0-153.176,124.621-277.798,277.797-277.798S575.438,267.77,575.438,420.945
		C575.438,574.121,450.816,698.742,297.64,698.742z"/>
	<path fill="#628981" d="M307.561,381.468V280.846c0-5.486-4.444-9.921-9.921-9.921s-9.921,4.435-9.921,9.921v100.623
		c-13.88,3.611-24.744,14.475-28.355,28.355h-70.858c-5.477,0-9.921,4.435-9.921,9.921c0,5.487,4.444,9.921,9.921,9.921h70.858
		c4.435,17.064,19.843,29.764,38.276,29.764c21.887,0,39.686-17.799,39.686-39.685C337.325,401.301,324.626,385.903,307.561,381.468
		z M297.64,439.587c-10.943,0-19.843-8.9-19.843-19.843c0-10.943,8.899-19.843,19.843-19.843s19.843,8.899,19.843,19.843
		C317.483,430.687,308.583,439.587,297.64,439.587z"/>
	<path fill="#628981" d="M297.64,221.318c5.477,0,9.921-4.435,9.921-9.921v-9.921c0-5.486-4.444-9.921-9.921-9.921
		s-9.921,4.435-9.921,9.921v9.921C287.719,216.883,292.163,221.318,297.64,221.318z"/>
	<path fill="#628981" d="M297.64,618.171c-5.477,0-9.921,4.436-9.921,9.922v9.92c0,5.488,4.444,9.922,9.921,9.922
		s9.921-4.434,9.921-9.922v-9.92C307.561,622.607,303.116,618.171,297.64,618.171z"/>
	<path fill="#628981" d="M515.909,409.823h-9.922c-5.477,0-9.921,4.435-9.921,9.921c0,5.487,4.444,9.921,9.921,9.921h9.922
		c5.477,0,9.921-4.434,9.921-9.921C525.83,414.258,521.386,409.823,515.909,409.823z"/>
	<path fill="#628981" d="M89.292,409.823H79.37c-5.477,0-9.921,4.435-9.921,9.921c0,5.487,4.444,9.921,9.921,9.921h9.922
		c5.477,0,9.921-4.434,9.921-9.921C99.213,414.258,94.769,409.823,89.292,409.823z"/>
	<path fill="#628981" d="M444.962,258.384l-7.015,7.015c-3.879,3.879-3.879,10.149,0,14.029c1.935,1.935,4.475,2.907,7.015,2.907
		s5.079-0.972,7.014-2.907l7.015-7.015c3.879-3.879,3.879-10.149,0-14.029C455.112,254.505,448.841,254.515,444.962,258.384z"/>
	<path fill="#628981" d="M143.304,560.052l-7.015,7.014c-3.879,3.879-3.879,10.15,0,14.029c1.935,1.936,4.475,2.906,7.015,2.906
		s5.079-0.971,7.015-2.906l7.014-7.014c3.88-3.879,3.88-10.15,0-14.029C153.453,556.173,147.173,556.183,143.304,560.052z"/>
	<path fill="#628981" d="M451.976,560.052c-3.879-3.879-10.149-3.879-14.028,0s-3.879,10.15,0,14.029l7.015,7.014
		c1.935,1.936,4.475,2.906,7.014,2.906c2.54,0,5.08-0.971,7.015-2.906c3.879-3.879,3.879-10.148,0-14.029L451.976,560.052z"/>
	<path fill="#628981" d="M150.319,258.384c-3.88-3.879-10.15-3.879-14.029,0c-3.879,3.879-3.879,10.149,0,14.029l7.015,7.015
		c1.935,1.935,4.475,2.907,7.015,2.907c2.539,0,5.079-0.972,7.014-2.907c3.88-3.879,3.88-10.15,0-14.029L150.319,258.384z"/>
</g>
</svg>
