<?xml version="1.0" encoding="utf-8"?>
<!-- Generator: Adobe Illustrator 16.0.0, SVG Export Plug-In . SVG Version: 6.00 Build 0)  -->
<!DOCTYPE svg PUBLIC "-//W3C//DTD SVG 1.1//EN" "http://www.w3.org/Graphics/SVG/1.1/DTD/svg11.dtd">
<svg version="1.1" id="Слой_2" xmlns="http://www.w3.org/2000/svg" xmlns:xlink="http://www.w3.org/1999/xlink" x="0px" y="0px"
	 width="157.304px" height="39.237px" viewBox="0 0 157.304 39.237" enable-background="new 0 0 157.304 39.237"
	 xml:space="preserve">
<g>
	<g>
		<path fill="#FFFFFF" d="M1.163,24.234c-1.445,1.204,0,2.087,0,2.087h39.655c0,0,2.569-0.481,2.569-3.21
			c0-2.729-3.532-3.05-3.532-3.05h-9.632v-4.816l9.472-3.372l-0.16,2.248c0,0,0.321,2.488,2.729,2.569
			c2.408,0.08,2.408-2.408,2.408-2.408s1.365-11.479,1.285-13.164c-0.081-1.686-2.087-0.963-2.087-0.963S2.607,23.031,1.163,24.234z
			"/>
		<path fill="#FFFFFF" d="M74.479,16.582H60.458h-0.321H46.116c0,0-1.927,3.425,4.709,3.639c2.355,0.026,5.994-0.75,5.994-0.75
			s0.058,2.863-1.177,3.264c-6.127,0.763-4.496,3.585-4.496,3.585h8.991h0.321h8.991c0,0,1.632-2.823-4.495-3.585
			c-1.235-0.401-1.178-3.264-1.178-3.264s3.639,0.776,5.994,0.75C76.406,20.007,74.479,16.582,74.479,16.582z"/>
		<path fill="#FFFFFF" d="M75.763,18.14v6.612c0,0,0.08,1.72,1.827,1.559c1.284-0.119,16.771,0,16.771,0s1.842-0.067,2.15-1.075
			c0.309-1.007-1.289-3.01-1.289-3.01s-0.74,2.446-2.313,2.527c-0.684,0.035-11.525,0-11.525,0s-1.25-0.081-1.21-1.129
			c0.034-0.901,1.21-1.048,1.21-1.048l10.881,0.081c0,0,1.33,0.081,1.371-0.807c0.039-0.887-1.371-0.967-1.371-0.967h-9.592
			c0,0-1.048-0.14-1.068-0.8c-0.028-0.894,0.988-0.964,0.988-0.964s7.172-0.251,9.672-0.332s1.693,1.612,1.693,1.612
			s0.725,0.161,1.209-0.806c0.484-0.968,0-2.5,0-2.5s-0.174-0.43-0.967-0.403c-1.453-0.033-16.324-0.231-17.578,0
			C75.601,16.877,75.763,18.14,75.763,18.14z"/>
		<path fill="#FFFFFF" d="M98.13,16.047v10.167h8.885v-1.98c0,0,0.027-0.829,0.563-1.07c0.82-0.369,1.578,0.375,1.578,0.375
			l2.568,2.676c0,0,11.398-0.188,13.914,0c2.516,0.187,5.164,1.043,6.047,3.104h25.1c0,0-13.621-8.963-22.451-7.974
			c-2.645,0.366-4.574,1.433-5.592,1.659c-1.018,0.227-9.82,1.204-17.445-3.639c-0.402-1.873,2.799-1.838,4.174-1.392
			c1.373,0.447,9.365,3.157,9.365,3.157l2.623-1.337c0,0-12.701-8.428-14.672-8.455c-1.973-0.027-9.197,6.957-9.197,6.957
			l-0.883-3.371L98.13,16.047z"/>
	</g>
	<g>
		<path fill="#FFFFFF" d="M10.715,37.775c-0.155,0.142-0.341,0.212-0.559,0.212c-0.509,0-0.791-0.24-0.846-0.719
			c-0.136-1.242-0.218-1.936-0.245-2.083c-0.236-1.089-0.632-1.634-1.186-1.634c-0.664,0-1.141,0.847-1.432,2.542
			c-0.036,0.218-0.1,0.634-0.19,1.25c-0.055,0.316-0.223,0.474-0.505,0.474c-0.427,0-0.799-0.169-1.118-0.507v-0.163
			c-0.2-2.38-0.697-3.57-1.49-3.57c-0.547,0-0.998,0.67-1.354,2.01c-0.219,0.839-0.355,1.669-0.41,2.492
			c-0.155,0.147-0.342,0.221-0.561,0.221c-0.273,0-0.483-0.084-0.629-0.253C0.063,37.903,0,37.745,0,37.571
			c0-0.093,0.077-0.422,0.231-0.989c0.282-1.029,0.6-1.917,0.955-2.663c0.654-1.367,1.34-2.051,2.058-2.051
			c0.827,0,1.549,0.872,2.168,2.614c0.791-1.552,1.604-2.329,2.44-2.329C9.125,32.154,10.079,34.028,10.715,37.775z"/>
		<path fill="#FFFFFF" d="M19.617,37.228c0,0.381-0.189,0.572-0.567,0.572c-0.226,0-0.388-0.123-0.487-0.368
			c-0.027-0.131-0.063-0.313-0.109-0.547c-0.112-0.572-0.202-0.991-0.267-1.257c-1.208,0.065-2.639,0.311-4.292,0.736
			c-0.118,0.207-0.267,0.471-0.448,0.792c-0.218,0.436-0.347,0.681-0.382,0.735c-0.229,0.337-0.475,0.506-0.739,0.506
			c-0.237,0-0.355-0.15-0.355-0.45c0-0.141,0.182-0.572,0.545-1.291c0.245-0.479,0.49-0.929,0.736-1.348
			c0.582-0.991,1.013-1.664,1.295-2.018c0.791-1.002,1.504-1.503,2.14-1.503c0.873,0,1.627,0.932,2.263,2.794l0.027-0.008
			c0.409,0.044,0.614,0.27,0.614,0.678c0,0.239-0.109,0.371-0.328,0.392C19.499,36.601,19.617,37.129,19.617,37.228z M17.926,34.719
			c-0.363-1.062-0.795-1.593-1.295-1.593c-0.527,0-1.213,0.692-2.059,2.076C15.327,35.12,16.445,34.959,17.926,34.719z"/>
		<path fill="#FFFFFF" d="M29.486,37.742c-0.026,0.147-0.106,0.302-0.24,0.466c-0.16,0.196-0.338,0.294-0.534,0.294
			c-0.356,0-0.526-0.264-0.507-0.792c0.018-1.269,0.018-2.007,0-2.214c-0.1-1.182-0.45-1.773-1.05-1.773
			c-0.455,0-1.063,0.378-1.827,1.136l-0.232,0.229c-0.082,0.076-0.686,0.703-1.813,1.879c-0.727,0.751-1.254,1.127-1.581,1.127
			c-0.336,0-0.505-0.389-0.505-1.168c0-0.397,0.041-0.888,0.123-1.471c0.045-0.311,0.136-0.822,0.272-1.536
			c0.227-1.177,0.364-1.838,0.409-1.985c0.118-0.403,0.422-0.605,0.913-0.605c0.228,0,0.409,0.051,0.545,0.151
			s0.195,0.219,0.177,0.355l-0.354,1.054c-0.127,0.343-0.309,0.858-0.545,1.544c-0.2,0.604-0.3,1.125-0.3,1.56
			c0,0.153,0.036,0.229,0.109,0.229c0.1,0,0.318-0.185,0.654-0.556c0.164-0.18,0.314-0.351,0.45-0.515
			c0.809-0.953,1.354-1.569,1.636-1.846c0.918-0.899,1.667-1.348,2.25-1.348c0.663,0,1.159,0.531,1.486,1.593
			c0.2,0.632,0.318,1.321,0.354,2.067l0.095,1.773C29.481,37.609,29.486,37.726,29.486,37.742z M28.764,30.859
			c-0.009,0.078-0.068,0.148-0.177,0.211c-0.109,0.063-0.228,0.095-0.354,0.095c-0.027,0-0.302-0.079-0.825-0.237
			c-0.523-0.158-0.912-0.237-1.166-0.237c-0.191,0-0.409,0.073-0.654,0.217c-0.246,0.144-0.418,0.216-0.519,0.216
			c-0.291,0-0.632-0.076-1.022-0.229c-0.782-0.305-1.187-0.466-1.213-0.482c-0.073-0.049-0.104-0.114-0.096-0.196
			c0.027-0.185,0.155-0.278,0.382-0.278h0.068c0.763,0.387,1.291,0.58,1.582,0.58c0.118,0,0.222-0.05,0.313-0.151
			c0.146-0.162,0.236-0.255,0.273-0.277c0.145-0.101,0.341-0.151,0.586-0.151c0.573,0,1.459,0.204,2.658,0.613
			C28.728,30.663,28.782,30.765,28.764,30.859z"/>
		<path fill="#FFFFFF" d="M37.83,33.927c-0.055,0-0.082-0.03-0.082-0.09c0-0.049,0.018-0.123,0.055-0.221
			c0.036-0.098,0.054-0.171,0.054-0.221c0-0.108-0.057-0.222-0.17-0.339c-0.114-0.117-0.257-0.175-0.43-0.175
			c-0.055,0-0.141,0.005-0.259,0.016c-0.982,0.087-1.731,0.202-2.25,0.343c-0.709,0.19-1.295,0.49-1.759,0.898
			c-0.681,0.6-1.022,1.193-1.022,1.781c0,0.823,0.6,1.381,1.799,1.675c0.245,0.06,0.513,0.09,0.804,0.09
			c0.472,0,1.022-0.095,1.649-0.286c0.391-0.12,0.868-0.291,1.432-0.515c0.463-0.185,0.736-0.277,0.818-0.277
			c0.145,0,0.218,0.084,0.218,0.253c0,0.267-0.155,0.458-0.464,0.572c-0.654,0.245-1.363,0.447-2.126,0.605
			c-0.854,0.18-1.622,0.27-2.304,0.27c-1.063,0-1.868-0.205-2.413-0.613c-0.5-0.371-0.75-0.882-0.75-1.536
			c0-1.089,0.595-2.067,1.786-2.933c1.263-0.909,2.786-1.364,4.567-1.364c0.727,0,1.35,0.06,1.868,0.18
			c0.291,0.065,0.436,0.18,0.436,0.343c0,0.212-0.134,0.478-0.402,0.796c-0.268,0.319-0.543,0.543-0.824,0.674
			C37.952,33.902,37.875,33.927,37.83,33.927z"/>
		<path fill="#FFFFFF" d="M47.154,32.497c0,0.294-0.123,0.441-0.368,0.441c-0.027,0-0.109-0.008-0.245-0.024
			c-0.364-0.043-0.773-0.065-1.227-0.065c-0.482,0-0.963,0.025-1.445,0.074c-0.027,0.022-0.032,0.098-0.013,0.229l0.082,0.776
			c0.118,1.111,0.282,2.459,0.491,4.044c-0.232,0.408-0.49,0.613-0.775,0.613c-0.374,0-0.561-0.357-0.561-1.07
			c0-0.098,0-0.243,0-0.433v-0.286c0.045-1.024-0.082-2.252-0.382-3.685c-0.091,0.016-0.477,0.123-1.159,0.319
			c-0.591,0.168-0.918,0.253-0.981,0.253c-0.409,0-0.613-0.209-0.613-0.629c0-0.256,0.195-0.444,0.586-0.564
			c0.054-0.021,0.45-0.104,1.186-0.245c0.673-0.13,1.213-0.226,1.623-0.286c0.7-0.104,1.381-0.155,2.045-0.155
			c0.572,0,0.972,0.03,1.199,0.09C46.967,31.991,47.154,32.192,47.154,32.497z"/>
		<path fill="#FFFFFF" d="M55.783,37.636c0,0.152-0.118,0.229-0.354,0.229c-0.173,0-0.429-0.012-0.77-0.037
			c-0.341-0.025-0.598-0.037-0.771-0.037c-1.309,0-2.64,0.149-3.994,0.449c-0.164,0.131-0.35,0.196-0.559,0.196
			c-0.554,0-0.832-0.357-0.832-1.071c0-0.076,0.004-0.188,0.014-0.334c0.009-0.147,0.014-0.259,0.014-0.335
			c0-0.773-0.036-1.473-0.109-2.1c-0.019-0.18-0.091-0.602-0.218-1.266c-0.063-0.338-0.096-0.523-0.096-0.556
			c0-0.158,0.195-0.24,0.586-0.245c1.899-0.474,3.508-0.711,4.826-0.711c0.573,0,0.977,0.036,1.213,0.106
			c0.354,0.109,0.532,0.318,0.532,0.629c0,0.267-0.127,0.4-0.382,0.4c-0.027,0-0.104-0.008-0.232-0.024
			c-0.4-0.049-0.813-0.074-1.24-0.074c-1.218,0-2.458,0.185-3.722,0.556c0.036,0.561,0.068,1.296,0.096,2.206
			c0.69-0.054,1.581-0.158,2.672-0.311l2.658-0.368c0.2,0.022,0.363,0.112,0.491,0.27c0.109,0.136,0.164,0.272,0.164,0.409
			c0,0.267-0.136,0.4-0.409,0.4c-0.055,0-0.118-0.011-0.19-0.033h-0.314c-1.59,0-3.271,0.212-5.044,0.637l-0.014,0.237
			c-0.009,0.142,0,0.286,0.027,0.433c1.209-0.169,2.399-0.253,3.572-0.253c0.809,0,1.304,0.011,1.486,0.033
			C55.483,37.143,55.783,37.331,55.783,37.636z"/>
		<path fill="#FFFFFF" d="M58.428,36.427c0.049,0.273,0.112,0.678,0.191,1.217c-0.216,0.409-0.477,0.613-0.783,0.613
			c-0.369,0-0.553-0.363-0.553-1.087c0-0.098,0-0.234,0-0.409V36.5c0.027-0.566-0.014-1.302-0.123-2.206
			c-0.018-0.12-0.082-0.425-0.191-0.915c-0.091-0.397-0.136-0.697-0.136-0.898c0-0.174,0.146-0.262,0.437-0.262
			c0.063,0,0.131,0.003,0.204,0.008c1.182-0.245,2.2-0.368,3.054-0.368c0.881,0,1.64,0.136,2.277,0.408
			c0.727,0.305,1.091,0.711,1.091,1.218c0,0.528-0.391,1.067-1.173,1.618C61.84,35.73,60.409,36.171,58.428,36.427z M60.731,32.783
			c-0.682,0-1.577,0.079-2.686,0.236c0.073,0.592,0.172,1.482,0.3,2.672c0.918-0.082,1.791-0.323,2.618-0.726
			c1.09-0.532,1.636-1.004,1.636-1.417c0-0.277-0.209-0.48-0.627-0.611C61.645,32.834,61.231,32.783,60.731,32.783z"/>
		<path fill="#FFFFFF" d="M73,37.604c-0.152,0.142-0.334,0.212-0.548,0.212c-0.543,0-0.815-0.242-0.815-0.728
			c0-0.114,0-0.286,0-0.515c0-0.229,0-0.4,0-0.514v-0.156c-1.4,0.011-3.004,0.221-4.813,0.629c0.018,0.534,0.059,0.988,0.123,1.364
			c-0.155,0.142-0.346,0.212-0.573,0.212c-0.555,0-0.832-0.351-0.832-1.054c0-0.076,0-0.188,0-0.335c0-0.147,0-0.258,0-0.335
			c0-1.067-0.094-2.154-0.281-3.26l-0.115-0.678c0-0.164,0.173-0.246,0.518-0.246c0.236,0,0.445,0.03,0.627,0.09
			c0.209,0.076,0.314,0.18,0.314,0.311c0,0.021-0.005,0.054-0.014,0.098v0.106c0-0.065,0.014,0.076,0.042,0.425
			c0.021,0.256,0.053,1.024,0.094,2.304c0.624-0.049,2.246-0.253,4.867-0.612c-0.055-0.752-0.132-1.384-0.232-1.896
			c-0.018-0.06-0.059-0.205-0.123-0.433c-0.046-0.169-0.068-0.313-0.068-0.433c0-0.168,0.173-0.253,0.518-0.253
			c0.246,0,0.459,0.03,0.641,0.09c0.218,0.071,0.327,0.175,0.327,0.311c0,0.027-0.004,0.068-0.014,0.123v0.115
			c0,0.147,0.009,0.289,0.027,0.425l0.055,0.416c0.018,0.164,0.05,0.866,0.095,2.108C72.851,36.378,72.91,37.081,73,37.604z"/>
		<path fill="#FFFFFF" d="M81.425,32.538c0,0.191-0.045,0.491-0.137,0.899c-0.109,0.496-0.172,0.804-0.19,0.923
			c-0.101,0.812-0.136,1.506-0.108,2.083v0.294c0,0.032,0.004,0.108,0.014,0.229c0.008,0.092,0.014,0.169,0.014,0.229
			c0,0.746-0.196,1.12-0.587,1.12c-0.291,0-0.55-0.205-0.776-0.613c0.045-0.25,0.067-0.465,0.067-0.646
			c0-0.397-0.146-0.596-0.437-0.596c-0.381,0-0.891,0.319-1.526,0.956c-0.382,0.387-0.75,0.822-1.104,1.307
			c-0.245,0.343-0.541,0.515-0.886,0.515c-0.409,0-0.646-0.153-0.709-0.458c1.081-1.252,1.85-2.192,2.304-2.818
			c-0.854-0.262-1.545-0.583-2.072-0.964c-0.608-0.441-0.913-0.92-0.913-1.438s0.363-0.929,1.091-1.233
			c0.645-0.272,1.418-0.409,2.317-0.409c0.845,0,1.845,0.125,2.999,0.376c0.063-0.005,0.127-0.008,0.191-0.008
			C81.275,32.285,81.425,32.369,81.425,32.538z M80.212,33.077c-1.109-0.158-2.009-0.237-2.699-0.237
			c-0.482,0-0.887,0.052-1.213,0.155c-0.419,0.13-0.627,0.33-0.627,0.596c0,0.425,0.545,0.904,1.635,1.438
			c0.818,0.397,1.686,0.64,2.604,0.727L80.212,33.077z"/>
		<path fill="#FFFFFF" d="M97.375,32.448c0,0.087-0.119,0.199-0.355,0.335c-0.092,0.06-0.311,0.202-0.656,0.425
			c-0.238,0.153-1.336,0.839-3.297,2.059c1.615,0.785,2.832,1.631,3.654,2.541c0.082,0.093,0.123,0.174,0.123,0.245
			c0,0.093-0.072,0.191-0.211,0.294c-0.143,0.104-0.289,0.155-0.443,0.155c-0.119,0-0.25-0.076-0.396-0.229
			c-0.873-0.91-2.135-1.68-3.789-2.312c-0.246,0.158-0.473,0.31-0.682,0.458c0.027,0.615,0.072,1.13,0.137,1.544
			c-0.156,0.136-0.338,0.204-0.547,0.204c-0.572,0-0.854-0.24-0.844-0.719v-0.85c0.018-1.16-0.08-2.301-0.291-3.423
			c-0.098-0.512-0.146-0.732-0.146-0.662c0-0.169,0.178-0.253,0.533-0.253c0.236,0,0.443,0.033,0.627,0.098
			c0.217,0.076,0.326,0.179,0.326,0.31v0.017c-0.008,0.033-0.014,0.079-0.014,0.139v0.147c0,0.109,0.014,0.3,0.041,0.572
			l0.055,0.547l0.068,1.217c1.771-0.991,3.316-1.999,4.635-3.023c0.072-0.06,0.227-0.18,0.463-0.359
			c0.082-0.043,0.168-0.065,0.26-0.065c0.182,0,0.352,0.069,0.512,0.208C97.294,32.207,97.375,32.333,97.375,32.448z"/>
		<path fill="#FFFFFF" d="M105.99,37.636c0,0.152-0.119,0.229-0.354,0.229c-0.174,0-0.43-0.012-0.771-0.037
			c-0.34-0.025-0.598-0.037-0.77-0.037c-1.309,0-2.641,0.149-3.994,0.449c-0.164,0.131-0.352,0.196-0.559,0.196
			c-0.555,0-0.832-0.357-0.832-1.071c0-0.076,0.004-0.188,0.014-0.334c0.008-0.147,0.014-0.259,0.014-0.335
			c0-0.773-0.037-1.473-0.109-2.1c-0.018-0.18-0.092-0.602-0.219-1.266c-0.063-0.338-0.096-0.523-0.096-0.556
			c0-0.158,0.195-0.24,0.588-0.245c1.898-0.474,3.508-0.711,4.824-0.711c0.574,0,0.979,0.036,1.215,0.106
			c0.354,0.109,0.531,0.318,0.531,0.629c0,0.267-0.127,0.4-0.383,0.4c-0.027,0-0.104-0.008-0.23-0.024
			c-0.4-0.049-0.814-0.074-1.242-0.074c-1.217,0-2.457,0.185-3.721,0.556c0.037,0.561,0.068,1.296,0.096,2.206
			c0.689-0.054,1.58-0.158,2.672-0.311l2.658-0.368c0.199,0.022,0.363,0.112,0.49,0.27c0.109,0.136,0.164,0.272,0.164,0.409
			c0,0.267-0.137,0.4-0.408,0.4c-0.055,0-0.119-0.011-0.191-0.033h-0.314c-1.59,0-3.271,0.212-5.043,0.637l-0.014,0.237
			c-0.01,0.142,0,0.286,0.027,0.433c1.209-0.169,2.398-0.253,3.572-0.253c0.809,0,1.303,0.011,1.484,0.033
			C105.689,37.143,105.99,37.331,105.99,37.636z"/>
		<path fill="#FFFFFF" d="M108.634,36.427c0.049,0.273,0.113,0.678,0.191,1.217c-0.217,0.409-0.479,0.613-0.783,0.613
			c-0.369,0-0.553-0.363-0.553-1.087c0-0.098,0-0.234,0-0.409V36.5c0.027-0.566-0.014-1.302-0.123-2.206
			c-0.02-0.12-0.082-0.425-0.191-0.915c-0.092-0.397-0.137-0.697-0.137-0.898c0-0.174,0.146-0.262,0.438-0.262
			c0.063,0,0.131,0.003,0.203,0.008c1.182-0.245,2.201-0.368,3.055-0.368c0.881,0,1.641,0.136,2.275,0.408
			c0.729,0.305,1.092,0.711,1.092,1.218c0,0.528-0.391,1.067-1.172,1.618C112.046,35.73,110.615,36.171,108.634,36.427z
			 M110.939,32.783c-0.682,0-1.578,0.079-2.686,0.236c0.072,0.592,0.172,1.482,0.299,2.672c0.918-0.082,1.791-0.323,2.617-0.726
			c1.092-0.532,1.637-1.004,1.637-1.417c0-0.277-0.209-0.48-0.627-0.611C111.851,32.834,111.437,32.783,110.939,32.783z"/>
		<path fill="#FFFFFF" d="M122.839,37.228c0,0.381-0.189,0.572-0.568,0.572c-0.227,0-0.389-0.123-0.486-0.368
			c-0.027-0.131-0.064-0.313-0.109-0.547c-0.113-0.572-0.201-0.991-0.268-1.257c-1.207,0.065-2.639,0.311-4.291,0.736
			c-0.119,0.207-0.268,0.471-0.447,0.792c-0.219,0.436-0.348,0.681-0.383,0.735c-0.229,0.337-0.475,0.506-0.74,0.506
			c-0.236,0-0.355-0.15-0.355-0.45c0-0.141,0.182-0.572,0.545-1.291c0.246-0.479,0.492-0.929,0.736-1.348
			c0.582-0.991,1.014-1.664,1.295-2.018c0.791-1.002,1.504-1.503,2.141-1.503c0.873,0,1.627,0.932,2.264,2.794l0.027-0.008
			c0.408,0.044,0.613,0.27,0.613,0.678c0,0.239-0.109,0.371-0.328,0.392C122.72,36.601,122.839,37.129,122.839,37.228z
			 M121.148,34.719c-0.363-1.062-0.795-1.593-1.295-1.593c-0.527,0-1.213,0.692-2.059,2.076
			C118.548,35.12,119.667,34.959,121.148,34.719z"/>
		<path fill="#FFFFFF" d="M135.082,37.775c-0.156,0.142-0.342,0.212-0.561,0.212c-0.508,0-0.789-0.24-0.844-0.719
			c-0.137-1.242-0.219-1.936-0.246-2.083c-0.236-1.089-0.633-1.634-1.186-1.634c-0.664,0-1.141,0.847-1.432,2.542
			c-0.037,0.218-0.1,0.634-0.191,1.25c-0.055,0.316-0.223,0.474-0.504,0.474c-0.428,0-0.801-0.169-1.117-0.507v-0.163
			c-0.201-2.38-0.697-3.57-1.492-3.57c-0.547,0-0.998,0.67-1.354,2.01c-0.219,0.839-0.355,1.669-0.41,2.492
			c-0.154,0.147-0.342,0.221-0.561,0.221c-0.273,0-0.482-0.084-0.629-0.253c-0.127-0.141-0.191-0.299-0.191-0.474
			c0-0.093,0.078-0.422,0.232-0.989c0.281-1.029,0.6-1.917,0.955-2.663c0.654-1.367,1.34-2.051,2.059-2.051
			c0.826,0,1.549,0.872,2.166,2.614c0.791-1.552,1.605-2.329,2.441-2.329C133.49,32.154,134.445,34.028,135.082,37.775z"/>
		<path fill="#FFFFFF" d="M138.136,36.348c0,0.159,0.008,0.398,0.023,0.716s0.023,0.557,0.023,0.716c0,0.117-0.061,0.213-0.18,0.287
			c-0.121,0.075-0.277,0.112-0.473,0.112c-0.191,0-0.348-0.037-0.471-0.112c-0.121-0.074-0.182-0.17-0.182-0.287
			c0-0.159-0.008-0.398-0.023-0.716s-0.023-0.557-0.023-0.716c0-0.25,0.021-0.562,0.066-0.936c0.045-0.374,0.066-0.686,0.066-0.936
			c0-0.12,0.061-0.216,0.184-0.291c0.121-0.075,0.277-0.112,0.469-0.112s0.348,0.037,0.469,0.112
			c0.123,0.075,0.184,0.171,0.184,0.291c0,0.25-0.021,0.562-0.066,0.936C138.158,35.786,138.136,36.098,138.136,36.348z
			 M137.835,33.108c-0.213,0-0.396-0.045-0.551-0.135c-0.156-0.091-0.234-0.2-0.234-0.327c0-0.128,0.078-0.237,0.234-0.328
			c0.154-0.09,0.338-0.135,0.551-0.135s0.396,0.045,0.551,0.135c0.152,0.09,0.229,0.2,0.229,0.328c0,0.127-0.076,0.236-0.229,0.327
			C138.232,33.063,138.048,33.108,137.835,33.108z"/>
		<path fill="#FFFFFF" d="M147.83,32.448c0,0.087-0.117,0.199-0.354,0.335c-0.092,0.06-0.311,0.202-0.658,0.425
			c-0.236,0.153-1.336,0.839-3.295,2.059c1.613,0.785,2.832,1.631,3.652,2.541c0.082,0.093,0.123,0.174,0.123,0.245
			c0,0.093-0.07,0.191-0.211,0.294c-0.141,0.104-0.289,0.155-0.443,0.155c-0.117,0-0.25-0.076-0.395-0.229
			c-0.873-0.91-2.137-1.68-3.791-2.312c-0.244,0.158-0.473,0.31-0.68,0.458c0.025,0.615,0.072,1.13,0.135,1.544
			c-0.154,0.136-0.336,0.204-0.545,0.204c-0.572,0-0.854-0.24-0.846-0.719v-0.85c0.02-1.16-0.078-2.301-0.289-3.423
			c-0.098-0.512-0.146-0.732-0.146-0.662c0-0.169,0.178-0.253,0.531-0.253c0.236,0,0.445,0.033,0.627,0.098
			c0.219,0.076,0.328,0.179,0.328,0.31v0.017c-0.01,0.033-0.014,0.079-0.014,0.139v0.147c0,0.109,0.014,0.3,0.041,0.572l0.055,0.547
			l0.068,1.217c1.771-0.991,3.316-1.999,4.635-3.023c0.072-0.06,0.227-0.18,0.463-0.359c0.082-0.043,0.168-0.065,0.26-0.065
			c0.182,0,0.352,0.069,0.51,0.208C147.751,32.207,147.83,32.333,147.83,32.448z"/>
		<path fill="#FFFFFF" d="M157.304,37.742c-0.025,0.147-0.105,0.302-0.24,0.466c-0.16,0.196-0.338,0.294-0.533,0.294
			c-0.357,0-0.525-0.264-0.508-0.792c0.018-1.269,0.018-2.007,0-2.214c-0.1-1.182-0.449-1.773-1.049-1.773
			c-0.418,0-1.027,0.378-1.826,1.136l-0.232,0.221c-0.383,0.359-0.76,0.738-1.131,1.136c-0.229,0.25-0.455,0.501-0.682,0.751
			c-0.719,0.751-1.246,1.127-1.582,1.127s-0.504-0.392-0.504-1.176c0-0.392,0.041-0.879,0.121-1.462
			c0.047-0.316,0.137-0.828,0.273-1.536c0.227-1.177,0.363-1.838,0.41-1.985c0.117-0.403,0.422-0.605,0.912-0.605
			c0.227,0,0.41,0.051,0.545,0.151c0.137,0.101,0.195,0.219,0.178,0.355l-0.354,1.054c-0.129,0.343-0.311,0.858-0.547,1.544
			c-0.199,0.604-0.299,1.125-0.299,1.56c0,0.153,0.035,0.229,0.109,0.229c0.1,0,0.318-0.185,0.654-0.556
			c0.162-0.18,0.313-0.351,0.449-0.515c0.809-0.953,1.354-1.569,1.637-1.846c0.918-0.899,1.666-1.348,2.248-1.348
			c0.664,0,1.16,0.531,1.486,1.593c0.199,0.632,0.318,1.321,0.355,2.067l0.094,1.773C157.3,37.609,157.304,37.726,157.304,37.742z"
			/>
	</g>
</g>
</svg>
