<?xml version="1.0" encoding="utf-8"?>
<!-- Generator: Adobe Illustrator 16.0.0, SVG Export Plug-In . SVG Version: 6.00 Build 0)  -->
<!DOCTYPE svg PUBLIC "-//W3C//DTD SVG 1.1//EN" "http://www.w3.org/Graphics/SVG/1.1/DTD/svg11.dtd">
<svg version="1.1" id="Capa_1" xmlns="http://www.w3.org/2000/svg" xmlns:xlink="http://www.w3.org/1999/xlink" x="0px" y="0px"
	 width="511.256px" height="512px" viewBox="0.372 0 511.256 512" enable-background="new 0.372 0 511.256 512"
	 xml:space="preserve">
<g>
	<g>
		<path fill="#FFFFFF" d="M404.641,317.166c-10.481-10.914-23.125-16.75-36.524-16.75c-13.292,0-26.043,5.728-36.957,16.642
			l-34.147,34.04c-2.81-1.514-5.619-2.918-8.32-4.323c-3.891-1.944-7.564-3.782-10.698-5.728
			c-31.985-20.314-61.055-46.79-88.934-81.045c-13.508-17.074-22.585-31.446-29.177-46.034c8.86-8.105,17.073-16.534,25.07-24.638
			c3.025-3.026,6.051-6.16,9.077-9.185c22.692-22.693,22.692-52.085,0-74.778L164.53,75.865c-3.35-3.35-6.808-6.808-10.05-10.266
			c-6.483-6.7-13.291-13.616-20.315-20.1c-10.481-10.374-23.017-15.885-36.2-15.885S72.03,35.126,61.223,45.5
			c-0.107,0.108-0.107,0.108-0.216,0.216L24.266,82.781C10.435,96.613,2.546,113.471,0.817,133.03
			c-2.593,31.554,6.7,60.946,13.832,80.181c17.506,47.223,43.656,90.987,82.667,137.887
			c47.33,56.516,104.278,101.145,169.331,132.591c24.854,11.778,58.029,25.718,95.094,28.096c2.27,0.107,4.646,0.216,6.809,0.216
			c24.962,0,45.926-8.969,62.351-26.799c0.108-0.217,0.324-0.324,0.433-0.541c5.619-6.808,12.103-12.967,18.91-19.559
			c4.646-4.431,9.401-9.077,14.048-13.939c10.698-11.131,16.317-24.098,16.317-37.39c0-13.399-5.727-26.259-16.641-37.065
			L404.641,317.166z M443.327,430.954C443.219,430.954,443.219,431.063,443.327,430.954c-4.215,4.539-8.537,8.645-13.184,13.184
			c-7.024,6.7-14.156,13.724-20.856,21.612c-10.914,11.671-23.773,17.182-40.631,17.182c-1.621,0-3.35,0-4.971-0.108
			c-32.094-2.053-61.919-14.588-84.287-25.286c-61.163-29.608-114.869-71.645-159.498-124.918
			c-36.85-44.414-61.487-85.477-77.805-129.566c-10.05-26.907-13.724-47.871-12.103-67.646c1.081-12.644,5.943-23.125,14.912-32.094
			l36.85-36.849c5.295-4.971,10.914-7.672,16.425-7.672c6.808,0,12.319,4.106,15.777,7.564c0.107,0.108,0.216,0.216,0.324,0.324
			c6.592,6.16,12.858,12.535,19.45,19.343c3.351,3.458,6.809,6.916,10.267,10.482l29.5,29.501c11.455,11.454,11.455,22.044,0,33.499
			c-3.134,3.134-6.159,6.268-9.293,9.293c-9.077,9.293-17.722,17.938-27.123,26.367c-0.217,0.216-0.433,0.324-0.541,0.54
			c-9.293,9.293-7.563,18.371-5.619,24.53c0.108,0.324,0.217,0.648,0.324,0.973c7.673,18.586,18.479,36.092,34.904,56.949
			l0.107,0.107c29.825,36.741,61.271,65.377,95.959,87.313c4.431,2.81,8.969,5.079,13.291,7.24
			c3.891,1.945,7.564,3.782,10.698,5.728c0.433,0.216,0.864,0.54,1.297,0.756c3.674,1.838,7.132,2.701,10.697,2.701
			c8.97,0,14.589-5.619,16.426-7.455l36.957-36.957c3.674-3.674,9.509-8.105,16.317-8.105c6.699,0,12.211,4.215,15.561,7.889
			c0.108,0.108,0.108,0.108,0.216,0.217l59.542,59.541C454.349,408.153,454.349,419.5,443.327,430.954z"/>
		<path fill="#FFFFFF" d="M276.697,121.792c28.313,4.754,54.03,18.154,74.563,38.686c20.531,20.532,33.823,46.25,38.686,74.563
			c1.188,7.132,7.349,12.103,14.372,12.103c0.864,0,1.621-0.108,2.485-0.216c7.997-1.297,13.292-8.861,11.995-16.858
			c-5.835-34.255-22.045-65.485-46.791-90.231c-24.745-24.746-55.976-40.955-90.23-46.791c-7.996-1.296-15.452,3.999-16.857,11.887
			C263.514,112.822,268.7,120.495,276.697,121.792z"/>
		<path fill="#FFFFFF" d="M511.406,225.854c-9.617-56.408-36.2-107.737-77.048-148.584C393.511,36.423,342.182,9.84,285.774,0.223
			c-7.888-1.405-15.345,3.998-16.749,11.887c-1.297,7.997,3.998,15.453,11.995,16.857c50.355,8.537,96.282,32.418,132.807,68.835
			c36.524,36.524,60.298,82.451,68.835,132.807c1.188,7.132,7.348,12.103,14.372,12.103c0.864,0,1.621-0.108,2.485-0.216
			C507.407,241.307,512.81,233.743,511.406,225.854z"/>
	</g>
</g>
</svg>
