<?xml version="1.0" encoding="utf-8"?>
<!-- Generator: Adobe Illustrator 16.0.0, SVG Export Plug-In . SVG Version: 6.00 Build 0)  -->
<!DOCTYPE svg PUBLIC "-//W3C//DTD SVG 1.1//EN" "http://www.w3.org/Graphics/SVG/1.1/DTD/svg11.dtd">
<svg version="1.1" id="Capa_1" xmlns="http://www.w3.org/2000/svg" xmlns:xlink="http://www.w3.org/1999/xlink" x="0px" y="0px"
	 width="451.111px" height="569.585px" viewBox="-226.915 199.094 451.111 569.585"
	 enable-background="new -226.915 199.094 451.111 569.585" xml:space="preserve">
<g>
	<g>
		<path fill="#FFFFFF" d="M94.676,344.542c-27.438-26.392-63.48-39.996-101.615-38.6c-73.132,2.907-132.775,64.76-133.009,138.007
			c-0.116,32.438,11.278,64.062,32.09,88.942c29.996,36.043,46.506,81.504,46.506,128.125c0,0-3.139,21.393,12.092,21.393h95.803
			c15.58,0,12.092-21.393,12.092-21.393c0-45.576,16.742-90.688,48.482-130.449c19.649-24.766,30.113-54.529,30.113-86.153
			C137.229,406.396,122.115,370.818,94.676,344.542L94.676,344.542z M88.165,515.453c-34.531,43.252-53.017,92.549-53.715,142.775
			h-71.619c-0.697-51.273-19.067-101.152-52.087-140.799c-17.091-20.578-26.509-46.622-26.393-73.363
			c0.232-60.458,49.413-111.499,109.755-113.94c31.508-1.163,61.271,10.115,83.827,31.857
			c22.672,21.742,35.112,51.041,35.112,82.432C112.929,470.575,104.442,495.107,88.165,515.453z"/>
		<path fill="#FFFFFF" d="M158.157,265.133c-4.767-4.767-12.44-4.767-17.091,0l-29.532,29.532c-4.767,4.767-4.767,12.44,0,17.091
			c4.768,4.65,12.44,4.767,17.092,0l29.531-29.532C162.924,277.573,162.924,269.9,158.157,265.133z"/>
		<path fill="#FFFFFF" d="M47.007,698.919h-96.732c-6.743,0-12.092,5.465-12.092,12.092c0,6.744,5.465,12.092,12.092,12.092h96.732
			c6.744,0,12.092-5.465,12.092-12.092S53.634,698.919,47.007,698.919z"/>
		<path fill="#FFFFFF" d="M28.753,744.496h-60.108c-6.743,0-12.092,5.465-12.092,12.092c0,6.744,5.465,12.092,12.092,12.092h60.108
			c6.744,0,12.092-5.465,12.092-12.092S35.381,744.496,28.753,744.496z"/>
		<path fill="#FFFFFF" d="M-1.36,265.017c6.743,0,12.092-5.464,12.092-12.091v-41.74c0-6.743-5.465-12.091-12.092-12.091
			s-12.092,5.464-12.092,12.091v41.74C-13.451,259.668-8.103,265.017-1.36,265.017z"/>
		<path fill="#FFFFFF" d="M-114.253,311.872c4.767-4.767,4.767-12.44,0-17.091l-29.531-29.531c-4.768-4.767-12.44-4.767-17.092,0
			c-4.65,4.767-4.767,12.44,0,17.091l29.532,29.532C-126.577,316.522-118.904,316.522-114.253,311.872z"/>
		<path fill="#FFFFFF" d="M212.104,412.558h-41.739c-6.743,0-12.092,5.464-12.092,12.092c0,6.627,5.465,12.092,12.092,12.092h41.739
			c6.743,0,12.092-5.465,12.092-12.092C224.196,418.022,218.731,412.558,212.104,412.558z"/>
		<path fill="#FFFFFF" d="M-173.084,412.558h-41.739c-6.743,0-12.092,5.464-12.092,12.092c0,6.627,5.465,12.092,12.092,12.092
			h41.739c6.744,0,12.092-5.465,12.092-12.092C-160.992,418.022-166.34,412.558-173.084,412.558z"/>
	</g>
</g>
</svg>
