<?xml version="1.0" encoding="utf-8"?>
<!-- Generator: Adobe Illustrator 16.0.0, SVG Export Plug-In . SVG Version: 6.00 Build 0)  -->
<!DOCTYPE svg PUBLIC "-//W3C//DTD SVG 1.1//EN" "http://www.w3.org/Graphics/SVG/1.1/DTD/svg11.dtd">
<svg version="1.1" id="Capa_1" xmlns="http://www.w3.org/2000/svg" xmlns:xlink="http://www.w3.org/1999/xlink" x="0px" y="0px"
	 width="446.443px" height="595.28px" viewBox="-1649.581 -267.696 446.443 595.28"
	 enable-background="new -1649.581 -267.696 446.443 595.28" xml:space="preserve">
<g>
	<g>
		<path fill="#FFFFFF" d="M-1203.986,86.669l-0.425-5.824c-6.818-88.771-48.151-144.419-84.616-193.503
			c-33.765-45.451-62.927-84.701-62.927-142.614c0-4.65-2.604-8.901-6.733-11.033c-4.143-2.144-9.119-1.793-12.885,0.945
			c-54.764,39.189-100.457,105.241-116.419,168.264c-11.08,43.877-12.547,93.203-12.752,125.781
			c-50.574-10.803-62.03-86.458-62.151-87.281c-0.569-3.924-2.967-7.34-6.455-9.205c-3.523-1.84-7.666-1.974-11.239-0.206
			c-2.651,1.283-65.095,33.014-68.728,159.713c-0.255,4.215-0.266,8.43-0.266,12.656c0,123.08,100.142,223.221,223.222,223.221
			c123.079,0,223.222-100.141,223.222-223.221C-1203.138,98.187-1203.562,92.421-1203.986,86.669z M-1426.36,302.783
			c-41.031,0-74.407-35.557-74.407-79.264c0-1.49-0.012-2.992,0.096-4.832c0.497-18.432,3.997-31.016,7.836-39.385
			c7.194,15.455,20.067,29.658,40.946,29.658c6.855,0,12.402-5.545,12.402-12.4c0-17.658,0.363-38.027,4.759-56.412
			c3.913-16.313,13.261-33.643,25.105-47.545c5.268,18.045,15.538,32.648,25.566,46.904c14.351,20.395,29.186,41.479,31.79,77.434
			c0.157,2.131,0.315,4.275,0.315,6.576C-1351.953,267.226-1385.329,302.783-1426.36,302.783z M-1347.987,286.58
			c12.873-17.555,20.837-39.254,20.837-63.061c0-2.918-0.182-5.633-0.545-10.705c-2.943-40.486-20.54-65.508-36.077-87.584
			c-13.236-18.797-24.657-35.035-24.657-58.07c0-4.711-2.664-9.01-6.879-11.105c-4.19-2.107-9.252-1.635-12.994,1.211
			c-23.785,17.973-43.623,48.225-50.55,77.109c-3.536,14.811-4.771,30.834-5.207,44.01c-8.599-9.252-11.264-26.402-11.287-26.631
			c-0.557-3.984-3.003-7.461-6.575-9.313c-3.549-1.842-7.799-1.891-11.372-0.049c-3.125,1.598-30.579,17.342-32.153,75.254
			c-0.108,1.963-0.12,3.924-0.12,5.873c0,23.807,7.964,45.506,20.836,63.061c-70.528-30.455-120.046-100.639-120.046-182.215
			c0-3.719-0.012-7.424,0.242-11.555c2.131-74.335,25.917-111.199,41.442-127.463c10.826,38.753,39.189,89.412,94.729,89.412
			c6.854,0,12.401-5.547,12.401-12.402c0-41.502,0.933-89.46,12.026-133.373c12.595-49.75,47.098-103.473,88.746-139.84
			c6.915,53.117,35.847,92.065,66.257,132.985c36.15,48.66,73.523,98.979,79.784,180.46l0.425,5.934
			c0.387,5.16,0.787,10.307,0.787,15.84C-1227.941,185.939-1277.457,256.125-1347.987,286.58z"/>
	</g>
</g>
</svg>
