<?xml version="1.0" encoding="utf-8"?>
<!-- Generator: Adobe Illustrator 16.0.0, SVG Export Plug-In . SVG Version: 6.00 Build 0)  -->
<!DOCTYPE svg PUBLIC "-//W3C//DTD SVG 1.1//EN" "http://www.w3.org/Graphics/SVG/1.1/DTD/svg11.dtd">
<svg version="1.1" id="Capa_1" xmlns="http://www.w3.org/2000/svg" xmlns:xlink="http://www.w3.org/1999/xlink" x="0px" y="0px"
	 width="535.752px" height="595.281px" viewBox="-808.236 98.785 535.752 595.281"
	 enable-background="new -808.236 98.785 535.752 595.281" xml:space="preserve">
<g>
	<path fill="#FFFFFF" d="M-272.831,235.134c-0.059-0.218-0.178-0.417-0.248-0.635c-0.209-0.615-0.436-1.21-0.764-1.766
		c-0.158-0.278-0.377-0.516-0.566-0.784c-0.316-0.447-0.645-0.883-1.031-1.27c-0.258-0.258-0.545-0.466-0.824-0.694
		c-0.268-0.218-0.496-0.466-0.783-0.655c-0.158-0.099-0.348-0.148-0.506-0.238c-0.148-0.08-0.258-0.208-0.406-0.278L-535.915,99.837
		c-0.089-0.04-0.188-0.02-0.277-0.069c-1.28-0.595-2.669-0.982-4.167-0.982s-2.887,0.387-4.157,0.982
		c-0.089,0.04-0.188,0.02-0.277,0.069l-257.955,128.978c-0.148,0.079-0.258,0.198-0.406,0.278c-0.169,0.089-0.348,0.139-0.506,0.238
		c-0.298,0.188-0.517,0.446-0.784,0.655c-0.288,0.228-0.565,0.437-0.823,0.685c-0.387,0.387-0.715,0.823-1.032,1.27
		c-0.188,0.268-0.406,0.506-0.565,0.784c-0.327,0.556-0.556,1.161-0.764,1.776c-0.069,0.218-0.188,0.407-0.248,0.635
		c-0.229,0.824-0.357,1.677-0.357,2.55v317.483c0,0.059,0.03,0.119,0.03,0.178c0,0.199,0.069,0.387,0.079,0.576
		c0.079,1.012,0.317,1.984,0.685,2.896c0.069,0.158,0.039,0.338,0.119,0.496c0.079,0.18,0.218,0.309,0.317,0.477
		c0.248,0.457,0.525,0.873,0.843,1.289c0.259,0.348,0.517,0.686,0.813,0.982c0.338,0.338,0.705,0.635,1.092,0.924
		c0.357,0.277,0.715,0.545,1.102,0.764c0.148,0.078,0.258,0.207,0.406,0.277l257.955,128.977c0.148,0.07,0.308,0.041,0.456,0.109
		c1.271,0.576,2.609,0.953,3.979,0.953s2.709-0.377,3.979-0.943c0.148-0.068,0.317-0.039,0.456-0.109l257.956-128.977
		c3.363-1.676,5.486-5.109,5.486-8.869V237.684C-272.483,236.811-272.602,235.958-272.831,235.134z M-771.288,542.697
		c-2.292-4.971-8.186-7.145-13.166-4.852l-3.938,1.814V253.191l238.112,109.898v305.001l-225.284-112.646
		C-771.06,552.955-769.096,547.449-771.288,542.697z M-540.36,128.549c3.502,0,6.429-1.915,8.195-4.653l226.861,113.431
		l-225.135,103.906v-4.336c0-5.477-4.444-9.921-9.921-9.921s-9.921,4.445-9.921,9.921v4.336l-225.135-103.906l226.861-113.431
		C-546.788,126.635-543.862,128.549-540.36,128.549z M-530.439,451.619l16.231,7.49c1.35,0.625,2.759,0.912,4.147,0.912
		c3.75,0,7.342-2.143,9.019-5.773c2.292-4.971,0.119-10.875-4.852-13.166l-18.018-8.314c-2.133-0.982-4.404-1.002-6.528-0.467
		v-69.21l238.112-109.898V539.66l-15.387-7.104c-4.971-2.291-10.875-0.129-13.166,4.852c-2.302,4.971-0.129,10.863,4.852,13.166
		l10.725,4.951l-225.135,112.566V451.619z"/>
	<path fill="#FFFFFF" d="M-636.159,490.251c1.398,0,2.808-0.287,4.146-0.912l18.018-8.314c4.971-2.291,7.153-8.195,4.852-13.166
		c-2.292-4.971-8.195-7.143-13.166-4.852l-18.017,8.314c-4.971,2.291-7.153,8.195-4.852,13.166
		C-643.501,488.119-639.91,490.251-636.159,490.251z"/>
	<path fill="#FFFFFF" d="M-690.211,515.195c1.389,0,2.808-0.289,4.147-0.914l18.017-8.314c4.971-2.291,7.144-8.193,4.852-13.164
		s-8.185-7.154-13.165-4.852l-18.018,8.313c-4.971,2.293-7.144,8.195-4.852,13.166C-697.553,513.06-693.961,515.195-690.211,515.195
		z"/>
	<path fill="#FFFFFF" d="M-744.263,540.146c1.399,0,2.808-0.297,4.147-0.922l18.017-8.314c4.971-2.293,7.153-8.195,4.852-13.166
		c-2.291-4.971-8.215-7.143-13.165-4.852l-18.018,8.314c-4.971,2.291-7.153,8.195-4.852,13.166
		C-751.605,538.013-748.013,540.146-744.263,540.146z"/>
	<path fill="#FFFFFF" d="M-397.8,490.976l-18.017-8.314c-4.971-2.291-10.874-0.119-13.166,4.852s-0.119,10.873,4.852,13.166
		l18.017,8.314c1.35,0.625,2.759,0.912,4.147,0.912c3.75,0,7.342-2.133,9.019-5.764C-390.656,499.171-392.82,493.277-397.8,490.976z
		"/>
	<path fill="#FFFFFF" d="M-343.748,515.927l-18.018-8.313c-4.96-2.303-10.874-0.129-13.165,4.852
		c-2.302,4.971-0.129,10.863,4.852,13.164l18.017,8.314c1.35,0.625,2.759,0.914,4.147,0.914c3.75,0,7.342-2.135,9.009-5.766
		C-336.595,524.123-338.778,518.23-343.748,515.927z"/>
	<path fill="#FFFFFF" d="M-451.852,466.044l-18.017-8.314c-4.971-2.313-10.874-0.129-13.166,4.852
		c-2.302,4.971-0.129,10.863,4.852,13.166l18.018,8.313c1.35,0.625,2.758,0.914,4.146,0.914c3.751,0,7.342-2.133,9.009-5.766
		C-444.698,474.228-446.87,468.335-451.852,466.044z"/>
	<path fill="#FFFFFF" d="M-582.109,465.3c1.39,0,2.808-0.289,4.147-0.914l18.017-8.314c4.971-2.291,7.144-8.193,4.852-13.164
		c-2.302-4.971-8.185-7.154-13.165-4.852l-18.018,8.313c-4.971,2.293-7.143,8.195-4.852,13.166
		C-589.45,463.166-585.859,465.3-582.109,465.3z"/>
	<path fill="#FFFFFF" d="M-540.36,188.078c5.477,0,9.921-4.445,9.921-9.921v-19.843c0-5.477-4.444-9.921-9.921-9.921
		s-9.921,4.445-9.921,9.921v19.843C-550.281,183.633-545.836,188.078-540.36,188.078z"/>
	<path fill="#FFFFFF" d="M-540.36,247.605c5.477,0,9.921-4.445,9.921-9.921v-19.843c0-5.477-4.444-9.921-9.921-9.921
		s-9.921,4.445-9.921,9.921v19.843C-550.281,243.161-545.836,247.605-540.36,247.605z"/>
	<path fill="#FFFFFF" d="M-540.36,307.133c5.477,0,9.921-4.445,9.921-9.921V277.37c0-5.477-4.444-9.921-9.921-9.921
		s-9.921,4.445-9.921,9.921v19.842C-550.281,302.688-545.836,307.133-540.36,307.133z"/>
</g>
</svg>
