<?xml version="1.0" encoding="utf-8"?>
<!-- Generator: Adobe Illustrator 16.0.0, SVG Export Plug-In . SVG Version: 6.00 Build 0)  -->
<!DOCTYPE svg PUBLIC "-//W3C//DTD SVG 1.1//EN" "http://www.w3.org/Graphics/SVG/1.1/DTD/svg11.dtd">
<svg version="1.1" id="Capa_1" xmlns="http://www.w3.org/2000/svg" xmlns:xlink="http://www.w3.org/1999/xlink" x="0px" y="0px"
	 width="535.752px" height="595.281px" viewBox="-1394.815 87.129 535.752 595.281"
	 enable-background="new -1394.815 87.129 535.752 595.281" xml:space="preserve">
<path fill="#FFFFFF" d="M-859.41,223.478c-0.059-0.218-0.178-0.417-0.248-0.635c-0.209-0.615-0.436-1.21-0.764-1.766
	c-0.158-0.278-0.377-0.516-0.566-0.784c-0.316-0.447-0.645-0.883-1.031-1.27c-0.258-0.258-0.545-0.466-0.824-0.694
	c-0.268-0.218-0.496-0.466-0.783-0.655c-0.158-0.099-0.348-0.148-0.506-0.238c-0.148-0.08-0.258-0.208-0.406-0.278l-257.956-128.978
	c-0.089-0.04-0.188-0.02-0.277-0.069c-1.28-0.595-2.669-0.982-4.167-0.982s-2.887,0.387-4.157,0.982
	c-0.089,0.04-0.188,0.02-0.277,0.069l-257.955,128.978c-0.148,0.079-0.258,0.198-0.406,0.278c-0.169,0.089-0.348,0.139-0.506,0.238
	c-0.298,0.188-0.517,0.446-0.784,0.655c-0.288,0.228-0.565,0.437-0.823,0.685c-0.387,0.387-0.715,0.823-1.032,1.27
	c-0.188,0.268-0.406,0.506-0.565,0.784c-0.327,0.556-0.556,1.161-0.764,1.776c-0.069,0.218-0.188,0.407-0.248,0.635
	c-0.229,0.824-0.357,1.677-0.357,2.55v317.483c0,0.059,0.03,0.119,0.03,0.178c0,0.199,0.069,0.387,0.079,0.576
	c0.079,1.012,0.317,1.984,0.685,2.896c0.069,0.158,0.039,0.338,0.119,0.496c0.079,0.18,0.218,0.309,0.317,0.477
	c0.248,0.457,0.525,0.873,0.843,1.289c0.259,0.348,0.517,0.686,0.813,0.982c0.338,0.338,0.705,0.635,1.092,0.924
	c0.357,0.277,0.715,0.545,1.102,0.764c0.148,0.078,0.258,0.207,0.406,0.277l257.955,128.977c0.148,0.07,0.308,0.041,0.456,0.109
	c1.271,0.576,2.609,0.953,3.979,0.953s2.709-0.377,3.979-0.943c0.148-0.068,0.317-0.039,0.456-0.109l257.956-128.977
	c3.363-1.676,5.486-5.109,5.486-8.869V226.028C-859.063,225.155-859.182,224.302-859.41,223.478z M-1374.972,528.003V241.535
	l238.112,109.898v305.001l-225.284-112.646l-13.118-8.34L-1374.972,528.003z M-1118.744,112.24l226.861,113.431l-225.135,103.906
	l-9.921,5.368l-9.921-5.368l-225.135-103.906l226.861-113.431l8.194-2.628L-1118.744,112.24z M-1117.018,439.962v-19.318v-69.21
	l238.112-109.898v286.468l-0.454,7.441l-12.523,8.424l-225.135,112.566V439.962z"/>
</svg>
