<?xml version="1.0" encoding="utf-8"?>
<!-- Generator: Adobe Illustrator 16.0.0, SVG Export Plug-In . SVG Version: 6.00 Build 0)  -->
<!DOCTYPE svg PUBLIC "-//W3C//DTD SVG 1.1//EN" "http://www.w3.org/Graphics/SVG/1.1/DTD/svg11.dtd">
<svg version="1.1" id="Capa_1" xmlns="http://www.w3.org/2000/svg" xmlns:xlink="http://www.w3.org/1999/xlink" x="0px" y="0px"
	 width="471.265px" height="595.28px" viewBox="-2073.826 48.608 471.265 595.28"
	 enable-background="new -2073.826 48.608 471.265 595.28" xml:space="preserve">
<g>
	<g>
		<path fill="#FFFFFF" d="M-1689.373,519.871h-24.804c-6.855,0-12.402-5.547-12.402-12.402s5.547-12.4,12.402-12.4h24.804
			c34.201,0,62.009-27.807,62.009-62.01c0-34.201-27.808-62.007-62.009-62.007h-24.804c-6.855,0-12.402-5.545-12.402-12.4
			s5.547-12.403,12.402-12.403h24.804c47.863,0,86.812,38.95,86.812,86.811C-1602.562,480.919-1641.51,519.871-1689.373,519.871z"/>
		<path fill="#FFFFFF" d="M-1763.783,643.888h-223.229c-34.188,0-62.008-27.807-62.008-62.008V309.043
			c0-6.855,5.546-12.402,12.401-12.402h240.742l56.074-100.739c-4.65-4.627-8.308-9.979-10.778-15.889
			c-5.256-12.522-4.941-27.02,0.872-40.814c3.053-7.243,8.114-13.625,13.443-20.358c13.977-17.646,21.872-29.466,8.769-49.438
			c-2.786-4.251-2.714-9.786,0.217-13.952c2.955-4.154,8.09-6.129,13.056-4.905c35.897,8.684,61.307,33.984,69.711,69.42
			c7.558,31.948-0.848,64.842-20.952,81.847c-7.097,6.019-15.211,9.713-23.932,11.057l-31.634,83.772h6.855
			c6.855,0,12.402,5.547,12.402,12.402V581.88C-1701.776,616.08-1729.581,643.888-1763.783,643.888z M-2024.218,321.445V581.88
			c0,20.516,16.688,37.203,37.204,37.203h223.23c20.516,0,37.204-16.688,37.204-37.203V321.445h-12.111c-0.193,0-0.388,0-0.581,0
			h-49.073c-0.241-0.024-0.339-0.012-0.509,0H-2024.218z M-1767.49,296.641h19.936l32.53-86.133c-1.261-0.4-2.52-0.848-3.779-1.332
			L-1767.49,296.641z M-1716.066,183.113c1.405,0.836,2.931,1.587,4.53,2.265c12.014,5.038,22.139,4.178,30.059-2.495
			c12.717-10.779,18.117-34.832,12.813-57.201c-4.068-17.222-13.66-31.186-27.347-40.523c1.404,21.037-11.384,37.192-20.807,49.074
			c-4.264,5.39-8.308,10.464-10.027,14.594c-3.245,7.714-3.561,15.187-0.872,21.606c1.841,4.396,5.014,8.199,9.35,11.214
			c0.17,0.085,0.363,0.183,0.533,0.278C-1717.204,182.277-1716.623,182.677-1716.066,183.113z"/>
		<path fill="#FFFFFF" d="M-1937.406,321.445h-74.41c-4.698,0-8.986-2.652-11.093-6.855l-37.109-74.216
			c-0.653-1.248-1.077-2.58-1.271-3.936l-12.366-74.18c-0.799-4.771,1.261-9.567,5.257-12.28c3.972-2.762,9.167-2.906,13.358-0.388
			l61.767,37.06c1.393,0.799,2.664,1.877,3.693,3.221c0.013,0.012,0.013,0.024,0.024,0.036c0.013,0-0.024,0,0.036,0.037
			c0.013,0-0.012,0,0.024,0.037c0,0,0,0,0,0.012l0,0c0.013,0,0.013,0.012,0.024,0.024c0,0,0,0,0.013,0.012c0,0,0,0.012,0.012,0.024
			l0.012,0.012c0,0.012,0.013,0.012,0.013,0.012c0.363,0.497,0.678,0.993,0.956,1.514l61.899,111.433
			c2.131,3.839,2.083,8.526-0.146,12.305C-1928.941,319.12-1933.01,321.445-1937.406,321.445z M-2004.151,296.641h45.671
			l-44.871-80.757l-29.951,22.454L-2004.151,296.641z M-2044.771,184.675l4.627,27.795l18.529-13.892L-2044.771,184.675z"/>
		<path fill="#FFFFFF" d="M-1813.39,321.445h-99.214c-6.854,0-12.401-5.546-12.401-12.402V61.01c0-6.855,5.548-12.402,12.402-12.402
			h99.213c6.854,0,12.401,5.547,12.401,12.402v248.033C-1800.989,315.898-1806.535,321.445-1813.39,321.445z M-1900.201,296.641
			h74.41v-24.804h-12.401c-6.855,0-12.402-5.547-12.402-12.402c0-6.855,5.547-12.402,12.402-12.402h12.401v-24.804h-37.204
			c-6.855,0-12.402-5.546-12.402-12.402s5.547-12.402,12.402-12.402h37.204v-24.804h-12.401c-6.855,0-12.402-5.547-12.402-12.402
			c0-6.855,5.547-12.402,12.402-12.402h12.401v-24.799h-37.204c-6.855,0-12.402-5.546-12.402-12.402s5.547-12.402,12.402-12.402
			h37.204V73.412h-74.41V296.641L-1900.201,296.641z"/>
	</g>
</g>
</svg>
