<?xml version="1.0" encoding="utf-8"?>
<!-- Generator: Adobe Illustrator 16.0.0, SVG Export Plug-In . SVG Version: 6.00 Build 0)  -->
<!DOCTYPE svg PUBLIC "-//W3C//DTD SVG 1.1//EN" "http://www.w3.org/Graphics/SVG/1.1/DTD/svg11.dtd">
<svg version="1.1" id="Capa_1" xmlns="http://www.w3.org/2000/svg" xmlns:xlink="http://www.w3.org/1999/xlink" x="0px" y="0px"
	 width="409.601px" height="512px" viewBox="51.2 0 409.601 512" enable-background="new 51.2 0 409.601 512" xml:space="preserve">
<g>
	<path fill="#FFFFFF" d="M458.299,497.434l-23.1-23.1V175.667l-4.241-4.241L392.533,133V0H51.2v443.733h42.666V486.4h329.268
		l23.1,23.1c1.664,1.664,3.849,2.5,6.033,2.5s4.369-0.836,6.032-2.5C461.636,506.163,461.636,500.771,458.299,497.434z
		 M406.067,170.667h-98.867V71.799l85.334,85.333L406.067,170.667z M68.267,426.667V17.066h307.199v98.868l-69.025-69.026
		l-4.241-4.241H93.866v384H68.267z M110.933,469.333v-25.6v-384h179.2v128h128v269.534l-64.119-64.119
		c14.848-17.58,23.851-40.252,23.851-65.016c0-55.654-45.278-100.933-100.933-100.933S176,272.479,176,328.133
		s45.277,100.932,100.932,100.932c24.764,0,47.437-9.002,65.016-23.851l64.119,64.119H110.933z M276.932,411.998
		c-46.242,0-83.865-37.623-83.865-83.865s37.623-83.866,83.865-83.866s83.866,37.624,83.866,83.866S323.174,411.998,276.932,411.998
		z"/>
	<path fill="#FFFFFF" d="M227.2,307.2H278.4c4.72,0,8.533-3.814,8.533-8.534c0-4.719-3.813-8.533-8.533-8.533H227.2
		c-4.72,0-8.534,3.814-8.534,8.533C218.666,303.386,222.481,307.2,227.2,307.2z"/>
	<path fill="#FFFFFF" d="M329.6,341.334H227.2c-4.72,0-8.534,3.814-8.534,8.533s3.814,8.533,8.534,8.533H329.6
		c4.719,0,8.533-3.814,8.533-8.533S334.319,341.334,329.6,341.334z"/>
</g>
</svg>
